<svg width="1440" height="200" viewBox="0 0 1440 200" fill="none" xmlns="http://www.w3.org/2000/svg">
<mask id="path-1-inside-1_201_1060" fill="white">
<path d="M289 100.275C167.134 116.544 -6 200 -6 200H1458C1458 200 1263.87 31.0135 1096.5 41.4656C965.694 49.6343 868.427 157.292 739.5 178.588C556.328 208.844 473.238 75.6794 289 100.275Z"/>
</mask>
<path d="M-6 200L-147.989 -94.5642L-6 527V200ZM289 100.275L332.27 424.399L289 100.275ZM739.5 178.588L686.209 -144.041H686.209L739.5 178.588ZM1096.5 41.4656L1076.12 -284.899L1096.5 41.4656ZM1458 200V527H2331.69L1672.7 -46.6432L1458 200ZM-6 200C135.989 494.564 135.961 494.578 135.934 494.591C135.926 494.595 135.899 494.608 135.882 494.616C135.849 494.632 135.819 494.646 135.79 494.66C135.734 494.687 135.688 494.709 135.652 494.727C135.579 494.761 135.546 494.777 135.552 494.774C135.564 494.769 135.73 494.689 136.045 494.54C136.674 494.242 137.89 493.668 139.64 492.854C143.149 491.221 148.745 488.649 156.011 485.412C170.691 478.873 191.403 469.972 214.958 460.755C268.879 439.656 312.251 427.072 332.27 424.399L289 100.275L245.73 -223.849C143.883 -210.253 39.7548 -172.974 -23.3573 -148.278C-58.3189 -134.598 -88.5076 -121.618 -110.098 -112C-120.968 -107.159 -129.85 -103.084 -136.285 -100.089C-139.507 -98.5899 -142.13 -97.3548 -144.096 -96.4227C-145.08 -95.9564 -145.901 -95.5652 -146.551 -95.2541C-146.877 -95.0985 -147.16 -94.9628 -147.4 -94.8476C-147.52 -94.7901 -147.629 -94.7376 -147.727 -94.6903C-147.776 -94.6667 -147.823 -94.6444 -147.866 -94.6234C-147.888 -94.6128 -147.919 -94.598 -147.93 -94.5928C-147.96 -94.5783 -147.989 -94.5642 -6 200ZM289 100.275L332.27 424.399C333.955 424.175 333.544 424.015 336.872 424.794C345.793 426.88 356.484 430.614 394.168 445.549C463.413 472.993 604.658 532.292 792.791 501.216L739.5 178.588L686.209 -144.041C685.37 -143.902 687.473 -143.823 686.588 -144.014C680.299 -145.368 670.741 -148.328 635.132 -162.441C570.677 -187.986 431.282 -248.621 245.73 -223.849L289 100.275ZM739.5 178.588L792.791 501.216C922.43 479.802 1031.17 415.196 1072.41 392.972C1133.1 360.272 1131.81 366.897 1116.88 367.83L1096.5 41.4656L1076.12 -284.899C930.381 -275.797 815.061 -211.259 762.18 -182.764C689.856 -143.793 685.497 -143.923 686.209 -144.041L739.5 178.588ZM1096.5 41.4656L1116.88 367.83C1102.1 368.753 1100.85 365.406 1117.12 371.008C1132.12 376.172 1151.72 385.404 1173.96 398.515C1195.54 411.231 1214.65 424.66 1228.31 434.948C1234.95 439.952 1239.83 443.855 1242.54 446.068C1243.88 447.166 1244.66 447.817 1244.81 447.945C1244.88 448.008 1244.8 447.938 1244.55 447.725C1244.43 447.618 1244.26 447.476 1244.05 447.296C1243.95 447.206 1243.83 447.107 1243.71 446.998C1243.65 446.944 1243.58 446.887 1243.51 446.828C1243.48 446.798 1243.43 446.752 1243.41 446.737C1243.35 446.691 1243.3 446.643 1458 200C1672.7 -46.6432 1672.64 -46.6918 1672.59 -46.7412C1672.57 -46.7585 1672.51 -46.8086 1672.47 -46.8432C1672.39 -46.9127 1672.31 -46.9848 1672.22 -47.0596C1672.05 -47.2093 1671.86 -47.3698 1671.66 -47.5409C1671.27 -47.883 1670.82 -48.2678 1670.33 -48.6938C1669.33 -49.5456 1668.14 -50.5633 1666.75 -51.7353C1663.98 -54.0776 1660.42 -57.0468 1656.13 -60.5498C1647.57 -67.5371 1635.97 -76.7548 1621.8 -87.4298C1593.83 -108.5 1553.95 -136.665 1506.07 -164.888C1424.15 -213.176 1261.97 -296.505 1076.12 -284.899L1096.5 41.4656ZM1458 200V-127H-6V200V527H1458V200Z" fill="#FFFAEF" mask="url(#path-1-inside-1_201_1060)"/>
<path d="M905.242 67.8894C959.918 37.3653 1023.76 3.93688 1089.19 0.583641C1089.76 0.548426 1090.34 0.515412 1090.92 0.484574C1098.9 0.110582 1098.37 0.556989 1100.61 0.538522C1106.77 0.575581 1110.42 0.271912 1114.89 0.467109C1136.56 1.50651 1156.62 4.81108 1177.14 9.91802C1198.22 15.4939 1187.92 13.9752 1195.12 16.2486C1209.08 21.0108 1197.49 16.045 1203.12 17.4671C1219.23 22.6292 1235.15 28.8248 1250.61 35.6431C1246.76 34.1258 1242.91 32.6538 1239 31.1987C1245.83 33.9802 1255.4 38.3348 1243.93 33.8614C1246.4 34.9981 1248.69 36.0937 1251.23 37.2954C1252.15 37.1162 1264.04 42.3944 1265.23 42.6642C1266.43 42.8884 1259.75 39.8989 1259.8 39.9035C1260.44 39.6047 1287.37 53.1106 1289.17 54.2819C1294.2 56.9982 1289.47 55.2376 1293.79 57.4482C1301.25 61.3176 1296.95 57.5769 1306.07 64.4276C1310.27 66.1264 1310.52 66.5792 1315.46 69.4143C1316.11 69.7885 1315.76 69.2294 1316.05 69.3852C1323.62 73.4497 1317.6 70.6739 1317.63 70.7239C1318.02 71.5474 1326.2 76.0196 1327.83 77.0668C1348.56 90.1692 1363.24 100.176 1384.41 115.123C1388.99 118.33 1402.75 128.026 1407.11 131.452C1411.26 134.673 1408.7 133.235 1410.86 135.095C1415.07 137.127 1418.56 139.625 1425.91 146.19C1429.42 148.105 1428.6 148.127 1434.28 152.542C1438.73 155.983 1447.7 162.374 1451.88 167.013C1446.52 162.251 1446.62 162.781 1440.1 157.613C1438.04 155.801 1414.78 137.483 1416.15 139.533C1416.68 140.372 1424.82 146.294 1424.91 146.468C1426.29 148.051 1422.04 145.291 1418.15 142.071C1419.18 142.774 1420.4 143.618 1421.46 144.348C1413.04 137.209 1418.01 143.393 1412.43 137.079C1411.73 136.295 1412.18 136.375 1410.93 135.165C1410.6 135.021 1412.15 136.468 1410.68 135.402C1409.16 134.305 1406.81 132.03 1406.17 131.987C1405.29 131.953 1411.22 136.157 1411.74 136.597C1411.75 136.599 1411.76 136.6 1411.76 136.601C1415.61 139.86 1407.2 133.517 1406.86 133.342C1404.13 131.693 1405.76 133.203 1401.69 130.512C1399.3 128.921 1393.93 124.901 1391.7 123.364C1389.55 121.877 1392.71 124.446 1391.25 123.461C1389.74 122.438 1388.23 121.139 1386.55 120.015C1385.83 119.541 1385.71 119.784 1385.37 119.551C1381.64 117.047 1384.38 118.297 1380.98 115.957C1378.78 114.437 1371.31 109.937 1376.2 113.481C1373.78 111.88 1371.39 110.295 1368.91 108.667C1370.41 109.781 1371.97 110.904 1373.4 111.994C1368.91 108.771 1366.59 107.773 1363.75 105.919C1360.91 104.065 1358.55 101.857 1355.27 100.038C1348.22 96.1242 1365.15 106.847 1367.02 108.3C1367.79 108.863 1364.52 107.186 1364.04 106.88C1361.92 105.53 1359.58 103.613 1357.91 102.538C1352.03 98.7505 1348.24 96.8057 1342.51 93.3054C1323.23 81.4679 1298.63 67.7848 1279.39 58.3282C1272.2 54.771 1268.1 52.3363 1264.84 50.8127C1257.2 47.29 1256.13 47.2545 1249.43 44.3314C1239.47 39.9812 1225.35 34.0488 1216.83 30.9721C1210.93 28.8067 1205.41 27.4056 1203.86 26.915C1182.31 19.9077 1155.44 13.8668 1136.88 11.7802C1128.14 10.7341 1124.03 10.083 1122.23 9.95437C1114.45 9.52926 1116.5 10.0165 1110.21 9.78453C1106.82 9.69436 1106.19 9.35556 1105.73 9.33567C1101.71 9.21353 1100.91 9.6977 1097.79 9.79174C1095.11 9.88219 1092.45 10.0097 1089.8 10.1768C1074.68 11.1366 1059.96 13.2507 1045.17 16.7863C1043.91 17.0888 1043.97 16.8638 1043.16 17.0762C1039.67 18.0122 1041.38 17.9018 1037.74 18.8936C1030.19 20.9837 1022.47 23.3296 1014.59 26.0504C1013.81 26.321 1013.38 26.1935 1011.6 26.8333C1009.81 27.4778 1008.55 28.202 1005.77 29.2401C998.496 31.9623 991.283 34.6144 983.73 37.9346C982.481 38.4846 981.066 39.4628 979.199 40.3067C973.34 42.9376 964.623 46.8045 959.684 49.2626C943.363 57.3487 928.652 65.5677 913.564 73.8907C910.019 75.8477 906.738 77.3304 904.889 78.3469C900.723 80.6391 903.994 79.1429 899.782 81.4796C865.377 100.542 830.443 119.76 792.713 133.877C777.938 139.468 759.497 145.292 744.434 148.301C738.508 149.493 737.105 149.371 733.172 150.015C732.957 150.05 732.735 150.086 732.504 150.124C724.455 151.421 723.157 152.109 714.79 153.158C707.909 153.982 700.409 154.104 693.23 154.462C686.201 154.785 683.013 155.347 674.866 155.333C668.288 155.318 658.854 154.646 651.708 154.025C584.721 148.879 524.877 119.435 464.049 95.8263C442.461 87.4941 418.112 79.5793 394.966 74.1804C392.785 73.679 396.242 73.9003 389.175 72.5692C385.438 71.896 380.017 71.2399 371.281 70.0082C342.587 65.9559 312.537 65.656 282.527 69.6147C257.991 72.8388 233.533 78.4437 209.99 85.0759C131.86 107.452 55.5212 143.24 -10.2825 169.349C-11.265 169.762 -11.4433 169.721 -11.9813 169.822C-12.1194 169.808 -12.141 169.729 -12.1824 169.655C-12.2182 169.578 -12.2663 169.502 -12.2869 169.412C-12.1902 168.964 -11.5778 168.25 -10.5625 167.575C-9.81826 167.344 -8.72119 166.956 -7.85607 166.686C-7.04073 166.44 -6.13069 166.155 -5.06983 165.795C-3.48123 163.445 -3.6639 163.92 4.92973 160.041C10.1558 157.698 5.70932 159.085 8.499 157.598C11.9379 155.721 28.9274 147.266 25.9725 149.655C26.961 149.03 27.8872 148.442 28.8828 147.82C41.3301 142.109 53.3861 136.64 65.5735 131.241C67.7361 130.285 67.6631 129.99 69.833 129.037C75.6946 126.464 80.4379 124.735 86.5859 122.226C89.9482 120.858 90.2016 120.382 94.5863 118.666C98.9806 116.955 99.0529 117.424 104.807 114.641C100.706 115.59 118.199 109.296 124.416 106.989C125.291 106.655 132.533 103.427 136.478 102.079C140.429 100.719 146.584 98.8891 152.64 96.6023C155.488 95.5276 157.12 94.5372 160.221 93.4677C162.402 92.716 165.15 92.1842 167.936 91.2852C170.721 90.3801 176.653 88.1596 177.759 87.8077C181.745 86.5257 177.419 88.1623 180.153 87.3129C193.354 83.2044 208.83 78.8495 221.976 75.282C223.603 74.8395 221.268 75.1311 221.482 75.0657C232.468 71.8753 226.65 73.7761 229.7 73.2876C232.591 72.7354 253.902 67.8532 253.965 67.4053C254.751 67.9119 259.378 66.491 260.648 66.2392C265.482 65.2681 264.636 65.9982 269.255 65.0262C270.947 64.6765 267.567 64.8557 269.4 64.558C273.317 63.9264 276.985 63.8052 281.667 63.336C282.533 63.2487 283.432 63.1511 284.373 63.0391C285.873 62.8634 286.329 62.5234 288.977 62.2234C291.659 61.8747 302.59 61.2371 297.506 61.1097C304.298 60.998 305.716 60.6261 313.474 60.2743C315.393 60.1998 318.076 60.5361 322.302 60.3326C323.734 60.2669 323.69 59.8364 325.84 59.8214C330.697 59.7982 335.443 60.306 341.658 60.6017C353.297 61.1564 365.819 62.1126 377.785 64.1372C381.072 64.7029 380.191 64.9773 384.928 65.8273C385.634 65.9462 391.347 66.6423 394.636 67.3831C396.629 67.7833 406.618 70.3543 408.665 70.9276C412.015 71.8073 412.713 71.5687 414.521 72.131C419.738 73.788 415.32 73.1975 421.912 74.1823C423.875 75.2215 427.572 76.272 428.579 77.1785C430.891 77.2264 433.498 78.656 437.69 79.7942C441.881 80.9332 445.622 80.9325 446.204 82.5116C448.186 83.0049 456.41 85.6354 457.774 86.1257C461.829 87.549 459.548 87.0969 462.603 88.1757C463.14 88.3681 462.67 87.9232 466.084 89.2327C468.332 90.053 484.701 96.4681 485.651 96.9132C496.62 101.718 479.507 94.7112 476.993 94.0436C476.593 93.8119 476.197 93.5819 475.768 93.3402C470.875 91.3166 473.485 92.9254 475.672 93.9155C477.861 94.905 482.111 96.3144 483.895 97.2225C484.785 97.676 483.962 98.0654 481.207 96.8881C484.112 98.2598 479.962 96.8504 481.069 97.4971C482.293 98.1922 495.646 103.63 495.851 103.325C493.36 102.302 490.25 101.061 487.726 100.034C484.656 98.1134 495.522 100.107 504.386 104.663C510.814 107.956 499.632 103.963 515.607 109.869C513.191 108.864 511.161 107.976 508.967 107.056C508.914 106.516 512.29 108.457 514.192 109.062C515.105 109.352 509.775 106.825 514.556 108.64C518.374 110.925 521.767 111.558 528.615 114.269C526.667 113.629 524.717 112.982 522.771 112.334C534.151 117.419 507.224 106.837 529.618 116.073C526.898 115.022 524.207 113.942 521.475 112.882C522.699 113.645 520.314 113.485 521.436 114.104C524.38 115.727 529.06 117.325 532.839 118.841C534.492 119.504 533.391 119.288 533.529 119.343C535.794 120.25 535.398 119.782 537.401 120.537C539.917 121.494 547.103 124.512 548.297 124.91C551.386 125.965 546.493 123.537 546.805 123.604C548.847 124.072 552.755 125.75 552.671 125.327C542.956 122.145 515.692 111.015 540.716 120.134C534.084 116.936 536.344 116.979 546.222 120.65C554.396 123.639 549.017 121.987 553.151 123.889C553.681 124.157 564.625 128.207 565.281 128.133C564.647 128.536 568.085 130.248 565.472 130C565.087 129.968 560.562 128.369 561.986 129.374C562.696 129.88 564.803 131.161 564.336 131.329C565.343 131.444 566.402 131.546 567.426 131.651C574.297 133.867 575.188 134.364 578.843 135.924C578.72 135.709 575.445 133.965 580.673 135.794C580.942 135.888 581.1 136.208 583.767 137.132C589.132 138.966 590.271 139.349 585.867 138.866C597.335 141.665 599.563 143.116 611.476 145.544C609.344 144.08 605.086 143.486 594.349 140.841C593.942 140.496 593.783 140.22 593.364 139.869C607.479 144.077 600.445 142.202 608.685 143.679C610.708 144.069 621.307 146.333 617.884 144.984C617.064 144.685 610.489 143.307 611.297 143.227C611.441 143.235 619.469 144.778 620.182 144.951C629.014 147.262 612.847 145.286 637.659 148.842C638.35 148.927 638.629 148.685 639.957 148.817C642.46 149.06 642.454 149.382 644.707 149.565C646.961 149.744 650.139 149.637 653.517 150.321C659.674 151.559 644.871 150.804 638.51 149.467C635.584 150.796 682.479 154.031 685.467 152.965C698.073 152.269 677.051 153.036 675.912 152.606C675.464 152.482 675.691 151.101 670.386 151.892C668.809 152.129 675.357 152.642 671.439 152.703C667.525 152.747 669.09 152.366 668.807 152.331C667.856 152.208 663.592 152.177 663.06 152.083C654.777 150.668 655.566 149.448 666.584 151.994C671.467 151.737 660.348 150.548 666.39 150.5C673.624 150.423 678.9 151.026 679.839 151.057C690.845 151.25 678.19 150.595 691.497 150.5C698.965 150.332 680.341 151.649 697.418 150.768C711.552 149.715 703.883 149.901 704.851 149.099C705.08 148.902 712.763 148.033 702.288 148.991C702.008 149.207 701.471 149.505 700.822 149.732C698.272 149.779 693.782 149.045 692.43 149.064C685.702 149.169 686.113 149.628 682.119 149.097C684.995 149.712 680.318 149.384 678.585 149.511C672.153 149.938 680.54 150.377 666.199 149.289C668.101 149.675 669.748 150.028 671.554 150.377C669.829 150.345 668.142 150.301 666.371 150.239C663.769 149.485 654.618 148.996 662.96 148.813C653.017 148.063 648.989 147.69 646.743 148.001C646.318 148.056 644.816 147.936 643.067 147.738C643.38 147.923 643.752 148.424 643.469 148.448C640.937 148.652 637.234 147.297 638.58 147.15C637.346 146.97 636.374 146.815 636.031 146.758C633.859 146.399 638.172 146.714 636.419 146.366C635.834 146.266 629.725 145.398 629.634 145.249C629.031 144.314 638.896 146.743 618.97 142.666C618.339 143.279 627.712 144.842 625.183 145.126C622.456 145.462 617.402 143.394 616.078 144.105C615.685 143.862 615.525 143.693 615.197 143.439C607.071 142.148 607.099 141.251 604.699 140.512C600.03 139.157 578.283 133.167 597.637 139.166C594.748 138.489 591.817 137.725 588.972 136.982C588.723 135.365 590.278 136.584 576.791 132.191C573.833 131.204 573.082 130.29 569.935 130.051C570.555 129.49 561.682 126.956 560.908 126.569C555.892 124.233 575.496 130.099 577.622 132.03C581.073 132.568 580.861 133.213 584.594 134.233C589.963 135.666 590.727 135.76 597.01 137.948C603.425 139.057 572.599 130.76 591.452 135.158C607.138 141.264 691.85 152.236 731.752 141.631C738.39 140.47 743.711 139.293 747.36 138.441C793.173 126.805 815.748 115.206 853.888 95.8793C857.671 94.0217 885.732 78.6433 880.282 82.5288C879.504 83.0976 867.56 89.969 878.237 84.8642C875.948 85.6894 881.923 82.1342 882.413 81.8161C893.695 74.563 886.793 78.1193 905.242 67.8894ZM963.903 45.0934C939.27 57.1606 957.544 48.6493 953.008 52.293C956.138 50.7041 959.278 49.1348 962.428 47.5911C961.567 47.9286 960.716 48.263 959.855 48.6043C959.852 48.6061 959.848 48.6078 959.845 48.6096C961.189 47.4345 962.549 46.2586 963.903 45.0934ZM1379.59 116.787C1378.58 116.277 1377.68 115.851 1376.64 115.324C1373.74 113.253 1370.77 111.165 1367.73 109.052C1368.15 109.208 1368.57 109.355 1369 109.511C1372.62 111.97 1376.08 114.356 1379.59 116.787ZM634.63 149.108C629.567 147.893 629.911 148.783 623.22 147.233C623.953 147.967 624.767 148.699 625.54 149.427C630.714 150.213 631.922 150.181 637.597 151.113C636.958 150.835 636.306 150.552 635.687 150.271C634.736 150.178 633.725 150.078 632.809 149.977C631.433 149.249 640.492 150.459 634.648 149.109C634.642 149.109 634.636 149.108 634.63 149.108ZM582.92 137.765C580.244 136.927 569.874 133.325 568.371 133.053C563.247 132.341 593.037 141.206 570.971 135.005C571.034 135.148 570.9 135.224 570.864 135.334C574.821 136.665 578.797 137.943 582.847 139.178C582.76 138.673 583.034 138.281 582.92 137.765ZM876.345 92.1756C872.597 94.1926 854.819 104.059 860.919 101.421C862.721 100.654 870.376 95.7123 873.416 94.0929C875.388 93.0467 873.387 94.6051 877.185 92.3654C876.927 92.2989 876.725 92.1795 876.335 92.1824C876.338 92.1801 876.341 92.1779 876.345 92.1756ZM882.197 86.238C878.377 88.4202 874.506 90.64 870.646 92.8139C873.716 91.6939 879.156 88.3783 879.8 88.7776C878.761 89.4036 877.733 90.0224 876.692 90.6468C875.808 90.9642 874.936 91.2739 874.065 91.5826C870.892 93.7096 873.008 92.7783 866.718 96.0401C870.962 94.8908 871.938 95.0051 882.094 88.29C880.344 89.8665 883.091 90.3841 888.371 86.0298C889.359 85.2172 884.683 87.6165 884.612 87.6117C883.681 87.5946 886.091 85.9298 885.12 85.9638C884.684 85.9782 881.878 87.5241 881.326 87.5126C881.068 87.5015 883.553 85.6993 882.197 86.238ZM891.015 84.0641C889.958 84.9696 894.357 83.3 897.826 81.2222C903.234 77.9836 894.237 82.2476 891.015 84.0641ZM1379.61 116.8C1379.61 116.796 1379.6 116.791 1379.59 116.787C1379.6 116.788 1379.6 116.79 1379.6 116.792C1379.61 116.795 1379.61 116.797 1379.61 116.8ZM596.652 141.936C593.398 141.345 588.731 140.002 588.974 140.463C587.458 139.959 585.93 139.444 584.425 138.925C584.407 139.039 584.404 139.158 584.387 139.27C588.957 140.683 593.589 142.032 598.223 143.29C597.717 142.845 597.256 142.409 596.652 141.936ZM547.041 125.711C541.427 123.57 545.963 125.82 544.641 125.591C543.313 125.365 538.373 123.263 538.835 123.821C542.14 125.103 545.595 126.42 548.958 127.673C548.205 126.98 547.724 126.379 547.03 125.707C547.034 125.709 547.037 125.71 547.041 125.711ZM1069.39 10.3459C1065.41 10.8485 1066.94 10.1366 1059.19 11.9996C1059.19 11.9985 1059.2 11.9974 1059.21 11.9963C1066.72 10.9023 1076.38 9.82841 1084.64 8.83854C1079.52 8.86774 1075.68 9.61736 1069.39 10.3459ZM648.712 151.996C650.465 151.869 642.457 150.773 640.685 150.814C637.78 150.929 646.003 152.239 648.712 151.996ZM1229.85 31.2159C1235.97 32.5894 1225.45 27.1755 1213.62 23.6119C1212.6 23.2922 1220.01 26.2183 1217.72 25.6134C1217.5 25.5477 1213.38 24.0826 1212.31 23.8661C1211.25 23.6451 1212.22 24.3035 1210.5 23.8605C1207.49 23.0703 1200.97 20.5356 1198.64 20.1512C1198.34 20.0961 1202.37 21.7847 1202.62 21.8862C1206.78 23.4689 1211.02 24.3358 1211.68 24.5559C1215.04 25.688 1214.39 25.9237 1215.21 26.3126C1216.74 27.0472 1219.6 27.8731 1219.8 27.9592C1224.72 30.1366 1213.21 25.8686 1211.57 25.5166C1207.21 24.4967 1211.01 26.1008 1200.77 23.0698C1199.8 22.7795 1188.2 19.1834 1202.67 24.1688C1173.69 16.3395 1216.93 29.0383 1221.45 30.9891C1223.61 31.6739 1220.54 30.1108 1221.89 30.412C1224.97 31.0917 1229.99 32.9401 1229.75 32.2205C1229.24 30.684 1222.38 28.9407 1217.88 27.1321C1218.45 27.0492 1218.72 26.8667 1219.7 26.9383C1218.22 26.7542 1229.42 31.0888 1229.85 31.2182C1229.85 31.2174 1229.85 31.2167 1229.85 31.2159ZM1156.3 11.3705C1149.74 9.81227 1150.05 10.6632 1144.01 9.30008C1138.52 9.22114 1149.15 10.7065 1150.38 10.9972C1156 12.1386 1155.7 12.8607 1161.47 13.7596C1159.59 12.9196 1158.08 12.1608 1156.3 11.3705ZM1212.91 26.8744C1208.5 25.7794 1216.15 28.4055 1216.43 28.6003C1219.55 30.4735 1196.7 22.568 1212.91 26.8744ZM852.261 103.202C850.199 104.235 851.674 103.903 849.916 104.931C848.16 105.968 841.787 108.811 842.047 108.938C842.315 109.082 854.008 103.867 842.604 109.76C843.052 109.685 842.966 109.839 843.207 109.852C846.367 108.277 849.542 106.669 852.678 105.056C850.782 105.603 848.834 106.148 847.01 106.659C848.635 105.492 849.801 105.332 849.895 105.284C849.895 105.284 849.895 105.284 849.895 105.283C853.163 103.576 856.885 100.87 852.261 103.202ZM1014.55 23.3208C1014.88 22.1924 1010.13 24.99 1008.1 25.8788C1006.06 26.7531 1003.1 27.5153 1004.31 27.4888C1007.75 26.4561 1014.51 23.4338 1014.55 23.3196C1014.55 23.32 1014.55 23.3204 1014.55 23.3208ZM1119.95 6.85425C1114.28 6.78416 1115.17 7.04197 1108.28 6.61174C1108.54 6.84545 1108.81 7.08459 1109.07 7.31564C1114.53 7.4529 1114.17 6.75691 1120.52 7.38228C1121.55 7.49709 1119.3 7.86614 1123.98 8.02679C1122.64 7.64104 1121.29 7.23378 1119.95 6.85425ZM1092 7.57509C1098.43 7.24306 1103.54 5.20896 1091.63 6.53775C1090.92 6.62642 1090.07 6.86255 1089.6 7.09328C1089.2 7.29243 1089.09 7.48506 1089.63 7.57339C1090.03 7.63918 1090.77 7.64817 1092 7.57509ZM905.148 74.4316C895.414 79.7661 906.589 73.9126 909.254 72.7675C886.766 85.489 911.765 71.277 914.484 70.8762C917.117 69.1153 921.996 65.7343 916.166 68.7457C913.734 70.0051 914.747 69.7716 914.602 69.8498C910.152 72.2233 910.464 71.5222 905.148 74.4316ZM1167.82 13.6602C1167.4 13.5841 1167.97 14.0369 1166.66 13.8162C1165.35 13.592 1162.45 12.7607 1162.12 12.8971C1161.79 13.0221 1167.66 14.4119 1169.49 14.6926C1171.32 14.9606 1171.53 14.3606 1167.82 13.6602ZM1125.98 6.44171C1120.46 6.23785 1129.35 8.12234 1130.54 8.268C1141.04 9.30921 1125.65 6.7134 1125.98 6.44171ZM926.78 60.2659C915.302 67.1952 924.406 63.4009 932.07 59.9937C932.985 59.3582 933.926 58.7102 934.83 58.0854C930.763 61.1473 923.355 65.9421 940.322 56.15C930.768 61.0059 938.598 56.618 938.64 56.5484C939.013 54.7217 925.312 62.815 926.79 60.2603C926.787 60.2622 926.783 60.264 926.78 60.2659ZM1185.18 18.2813C1190.77 19.7121 1205.29 23.9773 1198.73 21.3001C1194.21 20.2132 1189.7 19.208 1185.18 18.2813ZM726.861 145.776C722.046 146.147 717.942 146.714 712.018 147.38C717.377 147.301 713.897 147.755 712.123 148.073C709.425 148.555 716.022 147.821 716.016 147.842C715.958 148.326 711.875 148.949 721.18 147.742C718.874 148.225 716.702 148.669 714.33 149.109C721.497 148.29 723.173 148.339 727.831 148.033C723.785 147.791 727.907 147.573 732.585 146.552C733.202 146.416 733.826 146.267 734.439 146.102C735.759 145.743 734.398 145.632 732.427 145.62C730.506 145.615 728.039 145.687 726.844 145.778C726.85 145.777 726.856 145.777 726.861 145.776ZM914.544 66.7288C913.42 67.543 912.428 68.3547 911.356 69.1701C910.092 69.8885 908.828 70.6059 907.567 71.3248C907.337 71.279 907.129 71.2128 906.875 71.1866C905.18 72.0742 905.935 71.898 905.447 72.1906C905.446 72.1899 905.446 72.1892 905.446 72.1885C898.448 76.3845 895.516 77.9793 889.7 80.6605C889.925 81.067 890.15 81.4735 890.375 81.8799C891.61 81.1464 892.858 80.406 894.093 79.6727C894.639 79.0846 895.188 78.4947 895.735 77.9066C897.254 77.2217 898.759 76.5437 900.279 75.8583C901.4 75.1343 902.753 74.2761 903.718 73.6413C910.146 71.5638 896.54 78.0962 896.685 78.6327C896.774 78.9793 910.036 71.6087 911.835 70.3486C912.094 70.1664 908.754 70.9035 913.86 68.6636C914.659 68.3153 915.932 69.9953 920.363 65.6376C920.995 65.0181 917.76 65.3048 914.544 66.7288ZM865.966 92.6749C874.125 89.8666 845.675 103.326 858.187 97.9711C855.047 100.314 855.677 99.9769 859.385 98.6421C859.712 98.5257 857.404 99.9309 857.617 99.8429C860.99 98.4146 864.799 96.2004 865.083 96.6685C865.941 96.1774 866.748 95.7157 867.605 95.2227C863.734 96.7127 869.34 93.3179 871.352 91.7292C872.271 91.008 869.915 92.2137 870.685 91.6013C870.971 91.3763 874.278 89.7245 874.325 89.4924C874.406 88.983 872.105 89.6114 868.504 91.2119C868.504 91.2116 868.504 91.2112 868.503 91.2108C867.649 91.7021 866.822 92.1839 865.966 92.6749ZM1030.75 14.9966C1032.36 15.3152 1037.98 13.8717 1027.37 17.367C1027.94 17.3462 1028.53 17.3211 1029.1 17.3034C1030.9 16.755 1032.64 16.2394 1034.48 15.7162C1039.44 12.0272 1050.27 12.0304 1043.37 12.0871C1042.62 12.0926 1038.31 13.372 1042.5 11.8521C1042.49 11.8531 1042.48 11.8542 1042.48 11.8552C1036.51 13.5024 1035.84 13.974 1030.75 14.9966ZM991.98 29.2905C979.438 36.1232 1010.51 22.7581 1005.16 24.5638C1004.65 24.6484 991.226 30.3634 991.98 29.2905ZM1102.77 3.16455C1096.33 3.21513 1095.95 4.13989 1096.6 4.40481C1097.26 4.67566 1101.68 4.27601 1102.25 4.32874C1104.12 4.46919 1100.17 4.61097 1102.59 4.80304C1103.41 4.80375 1114.47 5.29791 1114.98 5.34119C1117.82 5.26103 1113.71 4.39343 1114.52 4.34922C1117.18 4.18592 1120.76 4.7612 1121.54 4.44723C1123.25 3.7614 1116.49 4.17785 1115.36 4.16754C1111.95 4.07168 1112.26 3.64594 1109.71 3.49717C1107.15 3.35966 1105.5 3.50228 1103.23 3.48138C1102.47 3.47573 1103.1 3.16507 1102.77 3.16455ZM1081.73 6.02745C1088.31 4.74569 1072.07 5.65725 1070.17 6.20817C1064.61 7.43045 1078.62 6.52196 1081.73 6.02745ZM885.672 84.2366C890.781 80.8939 878.185 87.4164 874.708 89.5072C875.462 89.3208 883.917 85.3912 885.672 84.2366ZM930.048 58.5057C925.19 61.2889 932.209 58.6714 936.33 56.4692C938.429 54.5847 936.215 55.9066 933.506 57.3219C930.802 58.7373 933.846 56.3407 930.048 58.5057ZM1171.54 12.0131C1170.39 11.6147 1151.13 8.36674 1162.07 10.773C1162.92 10.8963 1176.25 13.7879 1177.26 13.9959C1179.33 14.2916 1174.57 12.7316 1171.54 12.0131ZM953.422 45.1674C951.03 47.0319 948.437 48.3515 951.177 47.7318C951.181 47.73 951.184 47.7282 951.188 47.7264C944.606 51.3237 943.664 50.2441 942.239 51.0155C937.271 53.7364 942.489 52.14 939.503 54.0826C946.665 49.9788 944.889 51.6746 950.485 48.8515C951.735 48.2178 956.59 45.3206 957.218 44.7317C957.842 44.138 954.924 44.7411 953.422 45.1674ZM1198.21 19.0049C1191.95 16.8728 1185.9 16.1766 1194.62 18.8489C1198.86 20.1852 1202.02 20.3242 1198.21 19.0049ZM574.848 131.751C575.723 132.293 576.629 132.842 577.581 133.4C575.253 132.736 572.935 132.057 570.618 131.361C572.46 131.883 574.3 132.394 576.161 132.9C571.862 131.441 570.044 130.36 574.837 131.747C574.841 131.748 574.845 131.75 574.848 131.751ZM423.088 75.2819C421.191 74.4754 417.093 74.1155 417.579 74.3121C421.17 75.7476 425.717 76.3987 423.088 75.2819ZM876.698 86.573C870.012 90.0979 875.159 88.6844 879.265 86.5299C876.667 87.6875 880.489 84.5666 876.698 86.573ZM476.993 94.0436C477.588 94.3885 478.188 94.7359 478.858 95.1118C476.682 94.1013 476.329 93.8607 476.993 94.0436ZM1168.75 10.2828C1167.63 9.91242 1159.21 8.10829 1158.05 8.03549C1155.64 7.83052 1162.09 9.71156 1165.98 10.3507C1166.41 10.4155 1169.86 10.6229 1168.73 10.2788C1168.73 10.2801 1168.74 10.2814 1168.75 10.2828ZM565.309 128.107C565.317 128.122 565.307 128.131 565.281 128.133C565.293 128.125 565.294 128.114 565.309 128.107ZM253.889 67.3639C253.939 67.3731 253.967 67.3866 253.965 67.4053C253.944 67.3915 253.905 67.3805 253.889 67.3639ZM1108.62 1.84222C1105.78 0.618329 1099.08 1.30196 1104.36 1.84121C1104.66 1.86578 1107.92 1.82296 1108.62 1.84222Z" fill="#FFFAEF"/>
</svg>
